<svg width="104" height="25" viewBox="0 0 104 25" fill="none" xmlns="http://www.w3.org/2000/svg">
<rect y="6" width="12" height="3" rx="1" fill="white"/>
<rect y="11" width="8" height="3" rx="1" fill="white"/>
<rect y="16" width="4" height="3" rx="1" fill="white"/>
<path d="M25.871 18L21.553 12.713V18H19.173V6.134H21.553V11.455L25.871 6.134H28.744L23.848 12.016L28.88 18H25.871ZM41.1045 6.134L36.7525 18H33.8625L29.5105 6.134H32.0605L35.3245 15.569L38.5715 6.134H41.1045ZM49.8074 15.739H45.0814L44.2994 18H41.8004L46.0674 6.117H48.8384L53.1054 18H50.5894L49.8074 15.739ZM49.1614 13.835L47.4444 8.871L45.7274 13.835H49.1614ZM57.1313 15.994H62.4693V18H54.3773V16.164L59.6813 8.14H54.3773V6.134H62.4693V7.97L57.1313 15.994ZM71.7713 15.739H67.0453L66.2633 18H63.7643L68.0313 6.117H70.8023L75.0693 18H72.5533L71.7713 15.739ZM71.1253 13.835L69.4083 8.871L67.6913 13.835H71.1253ZM82.7842 18L80.1662 13.376H79.0442V18H76.6642V6.134H81.1182C82.0362 6.134 82.8182 6.29833 83.4642 6.627C84.1102 6.94433 84.5919 7.38067 84.9092 7.936C85.2379 8.48 85.4022 9.092 85.4022 9.772C85.4022 10.554 85.1755 11.2623 84.7222 11.897C84.2689 12.5203 83.5945 12.951 82.6992 13.189L85.5382 18H82.7842ZM79.0442 11.591H81.0332C81.6792 11.591 82.1609 11.438 82.4782 11.132C82.7955 10.8147 82.9542 10.3783 82.9542 9.823C82.9542 9.279 82.7955 8.85967 82.4782 8.565C82.1609 8.259 81.6792 8.106 81.0332 8.106H79.0442V11.591Z" fill="white"/>
</svg>
